<svg width="16" height="16" viewBox="0 0 16 16" fill="none" xmlns="http://www.w3.org/2000/svg">
<rect width="16" height="16" rx="8" fill="#FFCC00"/>
<path d="M9.25 1.625L8.99219 9.52344H7.11719L6.85156 1.625H9.25ZM6.78906 11.9688C6.78906 11.6354 6.90365 11.3594 7.13281 11.1406C7.36719 10.9167 7.67448 10.8047 8.05469 10.8047C8.4401 10.8047 8.7474 10.9167 8.97656 11.1406C9.20573 11.3594 9.32031 11.6354 9.32031 11.9688C9.32031 12.2917 9.20573 12.5651 8.97656 12.7891C8.7474 13.013 8.4401 13.125 8.05469 13.125C7.67448 13.125 7.36719 13.013 7.13281 12.7891C6.90365 12.5651 6.78906 12.2917 6.78906 11.9688Z" fill="white"/>
</svg>
